<?xml version="1.0" encoding="UTF-8"?>
<svg 
   xmlns="http://www.w3.org/2000/svg"
   xmlns:xlink="http://www.w3.org/1999/xlink"
>
<!-- edge -->
  <g transform="translate(100,200)">
   <g id="0">
    <path d="m 0,0 100,0"  style="fill:none;stroke:#000000;stroke-width:1px;stroke-linecap:butt;stroke-linejoin:miter;stroke-opacity:1"/>
    <path id="1" d="m 0,0 10,-17.320508"  style="fill:none;stroke:#000000;stroke-width:1px;stroke-linecap:butt;stroke-linejoin:miter;stroke-opacity:1"/>
        <g transform="translate(100)">
         <use xlink:href="#1" transform="rotate(-60,0,0)"/>
        </g>
     </g>
   </g>
<!-- tile -->
  <g transform="translate(125,300)">
   <g transform="scale(0.5)">
    <g id="2">
     <path d="m 25,50 50,0" style="fill:none;stroke:#000000;stroke-width:1px;stroke-linecap:butt;stroke-linejoin:miter;stroke-opacity:1"/>
     <path d="m 25,70 50,0" style="fill:none;stroke:#000000;stroke-width:1px;stroke-linecap:butt;stroke-linejoin:miter;stroke-opacity:1"/>
     <path d="m 25,90 50,0" style="fill:none;stroke:#000000;stroke-width:1px;stroke-linecap:butt;stroke-linejoin:miter;stroke-opacity:1"/>
     <path d="m 25,110 50,0" style="fill:none;stroke:#000000;stroke-width:1px;stroke-linecap:butt;stroke-linejoin:miter;stroke-opacity:1"/>
     <path d="m 25,130 50,0" style="fill:none;stroke:#000000;stroke-width:1px;stroke-linecap:butt;stroke-linejoin:miter;stroke-opacity:1"/>
     <g>
        <use xlink:href="#0"/>
     </g>
     <g transform="translate(-100)">
       <use xlink:href="#0" transform="rotate(-60,100,0)"/>
     </g>
     <g>
       <use xlink:href="#0" transform="rotate(-120,100,0)"/>
     </g>
     <g transform="translate(-100,173.20508)">
       <use xlink:href="#0" transform="rotate(60,100,0)"/>
     </g>
     <g transform="translate(-100,173.20508)">
       <use xlink:href="#0" transform="rotate(180,100,0)"/>
     </g>
     <g transform="translate(100,173.20508)">
       <use xlink:href="#0" transform="rotate(-60,0,0)"/>
     </g>
    </g>
   </g>
  </g>
<!-- tiling -->
  <g transform="translate(450,200)">
   <g transform="scale(0.5)">
    <g>
       <use xlink:href="#2"/>
    </g>
    <g transform="translate(300)">
       <use xlink:href="#2" transform="rotate(-60,50,86.60254)"/>
    </g>
    <g transform="translate(150,86.60254)">
       <use xlink:href="#2" transform="rotate(-60,50,86.60254)"/>
    </g>
    <g transform="translate(0,173.20508)">
       <use xlink:href="#2" transform="rotate(-60,50,86.60254)"/>
    </g>
    <g transform="translate(-150,86.60254)">
     <g transform="translate(0,173.20508)">
       <use xlink:href="#2" transform="rotate(-60,50,86.60254)"/>
     </g>
    </g>

    <g transform="translate(150,-86.60254)">
       <use xlink:href="#2" transform="rotate(-120,50,86.60254)"/>
    </g>
    <g transform="translate(-150,86.60254)">
       <use xlink:href="#2" transform="rotate(-120,50,86.60254)"/>
    </g>
    <g transform="translate(-300,173.20508)">
       <use xlink:href="#2"/>
    </g>
    <g transform="translate(300,-173.20508)">
       <use xlink:href="#2" transform="rotate(180,50,86.60254)"/>
    </g>
    <g transform="translate(300,173.20508)">
       <use xlink:href="#2" transform="rotate(180,50,86.60254)"/>
    </g>
    <g transform="translate(0,173.20508)">
     <g transform="translate(0,173.20508)">
       <use xlink:href="#2" transform="rotate(180,50,86.60254)"/>
     </g>
    </g>

    <g transform="translate(0,86.60254)">
     <g transform="translate(150,173.20508)">
       <use xlink:href="#2" transform="rotate(60,50,86.60254)"/>
     </g>
    </g>

    <g transform="translate(300,173.20508)">
     <g transform="translate(0,173.20508)">
       <use xlink:href="#2" transform="rotate(-60,50,86.60254)"/>
     </g>
    </g>

    <g transform="translate(150,86.60254)">
     <g transform="translate(0,173.20508)">
      <g transform="translate(0,173.20508)">
       <use xlink:href="#2" transform="rotate(180,50,86.60254)"/>
      </g>
     </g>
    </g>
    <g transform="translate(300,173.20508)">
     <g transform="translate(0,173.20508)">
     <g transform="translate(0,173.20508)">
       <use xlink:href="#2" transform="rotate(180,50,86.60254)"/>
     </g>
    </g>
    </g>

   </g>
  </g>
</svg>
