<?xml version="1.0" encoding="utf-8"?>
<!-- Generator: Adobe Illustrator 17.1.0, SVG Export Plug-In . SVG Version: 6.00 Build 0)  -->
<!DOCTYPE svg PUBLIC "-//W3C//DTD SVG 1.1//EN" "http://www.w3.org/Graphics/SVG/1.1/DTD/svg11.dtd">
<svg version="1.1" id="レイヤー_1" xmlns="http://www.w3.org/2000/svg" xmlns:xlink="http://www.w3.org/1999/xlink" x="0px"
	 y="0px" viewBox="0 0 2000 2000" enable-background="new 0 0 2000 2000" xml:space="preserve">
<g id="terminate">
</g>
<g transform="translate(666.6666870117188,666.6666870117188)rotate(25.714285714285715)scale(0.35689586789220945,0.35689586789220945)">
	<polygon opacity="0.3" fill="#FF0000" stroke="#0000FF" enable-background="new    " points="601.2,21.5 761.2,21.5 857.2,101.5 
		814.6,21.5 921.2,21.5 1209.5,160.3 889.5,160.3 	"/>
</g>
<g transform="translate(666.6666870117188,666.6666870117188)rotate(-25.714285714285715)scale(0.35689586789220945,0.35689586789220945)">
	<polygon opacity="0.3" fill="#FF0000" stroke="#0000FF" enable-background="new    " points="467.2,237.4 627.2,237.4 723.2,317.4 
		680.5,237.4 787.2,237.4 858.4,549.4 538.4,549.4 	"/>
</g>
<g transform="translate(666.6666870117188,666.6666870117188)rotate(0)scale(0.35689586789220945,0.35689586789220945)">
	<polygon opacity="0.3" fill="#FF0000" stroke="#0000FF" enable-background="new    " points="0,0 160,0 256,80 213.3,0 320,0 
		519.5,250.2 199.5,250.2 	"/>
</g>
<g transform="translate(666.6666870117188,666.6666870117188)rotate(0)scale(0.35689586789220945,0.35689586789220945)">
	<polygon opacity="0.3" fill="#FF0000" stroke="#0000FF" enable-background="new    " points="1050.7,-61.6 1210.7,-61.6 
		1306.7,18.4 1264.1,-61.6 1370.7,-61.6 1441.9,250.3 1121.9,250.3 	"/>
</g>
</svg>
