<?xml version="1.0" encoding="utf-8"?>
<!-- Generator: Adobe Illustrator 17.1.0, SVG Export Plug-In . SVG Version: 6.00 Build 0)  -->
<!DOCTYPE svg PUBLIC "-//W3C//DTD SVG 1.1//EN" "http://www.w3.org/Graphics/SVG/1.1/DTD/svg11.dtd">
<svg version="1.1" id="レイヤー_1" xmlns="http://www.w3.org/2000/svg" xmlns:xlink="http://www.w3.org/1999/xlink" x="0px"
	 y="0px" viewBox="0 0 2000 2000" enable-background="new 0 0 2000 2000" xml:space="preserve">
<g id="terminate">
</g>
<g transform="translate(666.6666870117188,666.6666870117188)rotate(30)scale(0.3660254037844386,0.3660254037844386)">
	<polygon opacity="0.3" fill="#FF0000" stroke="#0000FF" enable-background="new    " points="-31,-26.3 129,-26.3 225,53.7 
		182.4,-26.3 289,-26.3 566.2,133.7 246.2,133.7 	"/>
</g>
<g transform="translate(666.6666870117188,666.6666870117188)rotate(-30)scale(0.3660254037844386,0.3660254037844386)">
	<polygon opacity="0.3" fill="#FF0000" stroke="#0000FF" enable-background="new    " points="465.8,253.2 625.8,253.2 721.8,333.2 
		679.2,253.2 785.8,253.2 785.8,573.2 465.8,573.2 	"/>
</g>
<g transform="translate(666.6666870117188,666.6666870117188)rotate(0)scale(0.3660254037844386,0.3660254037844386)">
	<polygon opacity="0.3" fill="#FF0000" stroke="#0000FF" enable-background="new    " points="557.3,322.4 717.3,322.4 813.3,402.4 
		770.7,322.4 877.3,322.4 1037.3,599.5 717.3,599.5 	"/>
</g>
<g transform="translate(666.6666870117188,666.6666870117188)rotate(0)scale(0.3660254037844386,0.3660254037844386)">
	<polygon opacity="0.3" fill="#FF0000" stroke="#0000FF" enable-background="new    " points="-43.7,450.8 116.3,450.8 212.3,530.8 
		169.6,450.8 276.3,450.8 276.3,770.8 -43.7,770.8 	"/>
</g>
</svg>
