<svg width="2000" height="2000"><g id="terminate"></g><g id="stage"><g fill="#ff0000" x-polygon="0" transform="translate(666.6666870117188,666.6666870117188)rotate(30)scale(0.3660254037844386,0.3660254037844386)"><polygon class="r0" opacity="0.3" points="0 0, 160 0, 256 80, 213.33333333333334 0, 320 0, 597.1281292110205 159.99999999999997,277.1281292110204 159.99999999999997" stroke="#0000ff"></polygon></g><g fill="#ff0000" x-polygon="2" transform="translate(666.6666870117188,666.6666870117188)rotate(-30)scale(0.3660254037844386,0.3660254037844386)"><polygon class="r2" opacity="0.3" points="0 0, 160 0, 256 80, 213.33333333333334 0, 320 0, 320 320,1.9594348786357652e-14 320" stroke="#0000ff"></polygon></g><g fill="#ff0000" x-polygon="1" transform="translate(666.6666870117188,666.6666870117188)rotate(0)scale(0.3660254037844386,0.3660254037844386)"><polygon class="r1" opacity="0.3" points="0 0, 160 0, 256 80, 213.33333333333334 0, 320 0, 480 277.12812921102034,160.00000000000003 277.12812921102034" stroke="#0000ff"></polygon></g><g fill="#ff0000" x-polygon="2" transform="translate(666.6666870117188,666.6666870117188)rotate(0)scale(0.3660254037844386,0.3660254037844386)"><polygon class="r2" opacity="0.3" points="0 0, 160 0, 256 80, 213.33333333333334 0, 320 0, 320 320,1.9594348786357652e-14 320" stroke="#0000ff"></polygon></g><g fill="#ff0000" x-polygon="0" transform="translate(666.6666666666666,666.6666666666666)rotate(0)scale(1,1)"><polygon class="r0" opacity="0.3" points="0 0, 160 0, 256 80, 213.33333333333334 0, 320 0, 597.1281292110205 159.99999999999997,277.1281292110204 159.99999999999997" stroke="#0000ff"></polygon></g></g></svg>
