<svg>
    <symbol id="l0" viewBox="-50 -62.5 100 62.5">
        <path d="M -50,0 C -41.66666666666667 ,-10.416666666666671 -16.66666666666667 ,-62.5 0 ,-62.5  C 16.666666666666657 ,-62.5 50 ,0 50 ,0"
            fill="none" stroke="#000000" stroke-width="2" vectoreffect="non-scaling-stroke"></path>
    </symbol>
    <symbol id="l1" viewBox="-50 -62.5 100 62.5">
        <path d="M -50,0 C -41.66666666666667 ,-10.416666666666671 -16.66666666666667 ,-62.5 0 ,-62.5  C 16.666666666666657 ,-62.5 50 ,0 50 ,0"
            fill="none" stroke="#000000" stroke-width="2" vectoreffect="non-scaling-stroke"></path>
    </symbol>
    <symbol id="acap" viewBox="-175 -175 81.25000762939453 81.25000762939453">
        <use transform="translate(-200,-200)scale(0.7071067811865475)translate(70.71067811865474,70.71067811865474)rotate(135)"
            xmlns:xlink="http://www.w3.org/1999/xlink" xlink:href="#l1" width="100" height="62.5" x="-50" y="-62.5"></use>
    </symbol>
    <symbol id="atile" viewBox="-200 -262.5 462.5 462.5">
        <use transform="translate(0,-200)rotate(0)scale(1)" xmlns:xlink="http://www.w3.org/1999/xlink" xlink:href="#l0" width="100"
            height="62.5" x="-50" y="-62.5"></use>
        <use transform="translate(200,0)rotate(90)scale(1)" xmlns:xlink="http://www.w3.org/1999/xlink" xlink:href="#l0"
            width="100" height="62.5" x="-50" y="-62.5"></use>
        <use transform="translate(0,200)rotate(0)scale(1)" xmlns:xlink="http://www.w3.org/1999/xlink" xlink:href="#l0"
            width="100" height="62.5" x="-50" y="-62.5"></use>
        <use transform="translate(-200,0)rotate(90)scale(1)" xmlns:xlink="http://www.w3.org/1999/xlink" xlink:href="#l0"
            width="100" height="62.5" x="-50" y="-62.5"></use>
        <use transform="translate(0,0)rotate(-90)scale(1)" xmlns:xlink="http://www.w3.org/1999/xlink" xlink:href="#acap"
            width="81.25000762939453" height="81.25000762939453" x="-175" y="-175"></use>
        <use transform="translate(0,0)rotate(0)scale(1)" xmlns:xlink="http://www.w3.org/1999/xlink" xlink:href="#acap"
            width="81.25000762939453" height="81.25000762939453" x="-175" y="-175"></use>
        <use transform="translate(0,0)rotate(90)scale(1)" xmlns:xlink="http://www.w3.org/1999/xlink" xlink:href="#acap"
            width="81.25000762939453" height="81.25000762939453" x="-175" y="-175"></use>
        <use transform="translate(0,0)rotate(180)scale(1)" xmlns:xlink="http://www.w3.org/1999/xlink" xlink:href="#acap"
            width="81.25000762939453" height="81.25000762939453" x="-175" y="-175"></use>
    </symbol>
    <symbol id="cap" viewBox="-175 -175 81.25000762939453 81.25000762939453">
        <use transform="translate(-200,-200)scale(0.7071067811865475)translate(70.71067811865474,70.71067811865474)rotate(135)"
            xmlns:xlink="http://www.w3.org/1999/xlink" xlink:href="#l1" width="100" height="62.5" x="-50" y="-62.5"></use>
    </symbol>
    <symbol id="small" viewBox="-306.25 -306.25 212.5 212.5">
            <use transform="translate(-200,-200)scale(0.7071067811865475)translate(-70.71067811865474,70.71067811865474)rotate(225)scale(1)" xmlns:xlink="http://www.w3.org/1999/xlink"
                xlink:href="#l1" width="100" height="62.5" x="-50" y="-62.5"></use>
            <use transform="translate(-200,-200)scale(0.7071067811865475)translate(-70.71067811865474,-70.71067811865474)rotate(-45)scale(1)" xmlns:xlink="http://www.w3.org/1999/xlink"
                xlink:href="#l1" width="100" height="62.5" x="-50" y="-62.5"></use>
            <use transform="translate(-200,-200)scale(0.7071067811865475)translate(70.71067811865474,-70.71067811865474)rotate(45)scale(1)" xmlns:xlink="http://www.w3.org/1999/xlink"
                xlink:href="#l1" width="100" height="62.5" x="-50" y="-62.5"></use>
        
    </symbol>
    <symbol id="tile" viewBox="-306.25 -306.25 612.5 612.5">
        <use transform="translate(0,-200)rotate(0)scale(1)" xmlns:xlink="http://www.w3.org/1999/xlink" xlink:href="#l0" width="100"
            height="62.5" x="-50" y="-62.5"></use>
        <use transform="translate(200,0)rotate(-90)scale(1)" xmlns:xlink="http://www.w3.org/1999/xlink" xlink:href="#l0"
            width="100" height="62.5" x="-50" y="-62.5"></use>
        <use transform="translate(0,200)rotate(180)scale(1)" xmlns:xlink="http://www.w3.org/1999/xlink" xlink:href="#l0"
            width="100" height="62.5" x="-50" y="-62.5"></use>
        <use transform="translate(-200,0)rotate(90)scale(1)" xmlns:xlink="http://www.w3.org/1999/xlink" xlink:href="#l0"
            width="100" height="62.5" x="-50" y="-62.5"></use>
        <use transform="translate(0,0)rotate(-90)scale(1)" xmlns:xlink="http://www.w3.org/1999/xlink" xlink:href="#cap"
            width="81.25000762939453" height="81.25000762939453" x="-175" y="-175"></use>
        <use transform="translate(0,0)rotate(0)scale(1)" xmlns:xlink="http://www.w3.org/1999/xlink" xlink:href="#small"
            width="212.5" height="212.5" x="-306.25" y="-306.25"></use>
        <use transform="translate(0,0)rotate(90)scale(1)" xmlns:xlink="http://www.w3.org/1999/xlink" xlink:href="#small"
            width="212.5" height="212.5" x="-306.25" y="-306.25"></use>
        <use transform="translate(0,0)rotate(180)scale(1)" xmlns:xlink="http://www.w3.org/1999/xlink" xlink:href="#small"
            width="212.5" height="212.5" x="-306.25" y="-306.25"></use>
    </symbol>
    <g transform="translate(400,200)scale(0.2)">
        <use transform="translate(-400,0)rotate(-90)scale(1)" xmlns:xlink="http://www.w3.org/1999/xlink" xlink:href="#tile" width="612.5"
            height="612.5" x="-306.25" y="-306.25"></use>
        <use transform="translate(-400,400)rotate(0)scale(1)" xmlns:xlink="http://www.w3.org/1999/xlink" xlink:href="#atile"
            width="462.5" height="462.5" x="-200" y="-262.5"></use>
        <use transform="translate(0,0)rotate(0)scale(1)" xmlns:xlink="http://www.w3.org/1999/xlink" xlink:href="#atile"
            width="462.5" height="462.5" x="-200" y="-262.5"></use>
        <use transform="translate(400,0)rotate(0)scale(1)" xmlns:xlink="http://www.w3.org/1999/xlink" xlink:href="#tile"
            width="612.5" height="612.5" x="-306.25" y="-306.25"></use>
        <use transform="translate(0,400)rotate(0)scale(1)" xmlns:xlink="http://www.w3.org/1999/xlink" xlink:href="#tile"
            width="612.5" height="612.5" x="-306.25" y="-306.25"></use>
        <use transform="translate(400,400)rotate(180)scale(1)" xmlns:xlink="http://www.w3.org/1999/xlink" xlink:href="#atile"
            width="462.5" height="462.5" x="-200" y="-262.5"></use>
        <use transform="translate(-400,800)rotate(0)scale(1)" xmlns:xlink="http://www.w3.org/1999/xlink" xlink:href="#tile"
            width="612.5" height="612.5" x="-306.25" y="-306.25"></use>
        <use transform="translate(0,800)rotate(180)scale(1)" xmlns:xlink="http://www.w3.org/1999/xlink" xlink:href="#atile"
            width="462.5" height="462.5" x="-200" y="-262.5"></use>
        <use transform="translate(400,800)rotate(90)scale(1)" xmlns:xlink="http://www.w3.org/1999/xlink" xlink:href="#tile"
            width="612.5" height="612.5" x="-306.25" y="-306.25"></use>
    </g>
</svg>