<?xml version="1.0" encoding="utf-8"?>
<!-- Generator: Adobe Illustrator 17.1.0, SVG Export Plug-In . SVG Version: 6.00 Build 0)  -->
<!DOCTYPE svg PUBLIC "-//W3C//DTD SVG 1.1//EN" "http://www.w3.org/Graphics/SVG/1.1/DTD/svg11.dtd">
<svg version="1.1" id="レイヤー_1" xmlns="http://www.w3.org/2000/svg" xmlns:xlink="http://www.w3.org/1999/xlink" x="0px"
	 y="0px" viewBox="0 0 1062.99 935.43" enable-background="new 0 0 1062.99 935.43" xml:space="preserve">
<symbol  id="belt" viewBox="-202.054 103.23 598.108 248.081">
	
		<use xlink:href="#tile"  width="224.998" height="225.08" x="-112.499" y="-112.54" transform="matrix(-0.9922 0 0 -0.9922 -90.4269 238.3573)" overflow="visible"/>
	
		<use xlink:href="#tile"  width="224.998" height="225.08" x="-112.499" y="-112.54" transform="matrix(0.9922 0 0 0.9922 284.4321 216.2433)" overflow="visible"/>
	
		<use xlink:href="#tile"  width="224.998" height="225.08" x="-112.499" y="-112.54" transform="matrix(-0.9922 0 0 -0.9922 109.4677 239.6403)" overflow="visible"/>
	
		<use xlink:href="#tile"  width="224.998" height="225.08" x="-112.499" y="-112.54" transform="matrix(1 0 0 1 86.6905 215.7701)" overflow="visible"/>
</symbol>
<symbol  id="sword" viewBox="-111.622 -111.662 223.244 223.324">
	
		<use xlink:href="#tile"  width="224.998" height="225.08" x="-112.499" y="-112.54" transform="matrix(0.9922 0 0 0.9922 -1.349148e-04 1.991071e-04)" overflow="visible"/>
</symbol>
<symbol  id="tile" viewBox="-112.499 -112.54 224.998 225.08">
	<path fill="#FF0000" fill-opacity="0.4" stroke="#000000" stroke-width="2" d="M-88.166,111.793
		c-3.889-6.25-23.333-20.833-23.333-37.5s23.333-62.5,23.333-62.5s23.333-45.833,23.333-62.5s-19.444-31.25-23.333-37.5
		c6.25-3.889,20.833-23.333,37.5-23.333s62.5,23.333,62.5,23.333s45.833,23.333,62.5,23.333s31.25-19.444,37.5-23.333
		c-5.095,4.54-28.811,18.533-30.573,27.24c-1.762,8.707,31.571,12.873,20,25s-89.427,47.76-89.427,47.76
		s-77.856,35.634-89.427,47.76c-11.571,12.127,21.762,16.293,20,25C-59.355,93.26-83.071,107.253-88.166,111.793"/>
</symbol>
<use xlink:href="#tile"  width="224.998" height="225.08" x="-112.499" y="-112.54" transform="matrix(1 0 0 -1 357.3338 664.0965)" overflow="visible"/>
<g>
	
		<use xlink:href="#tile"  width="224.998" height="225.08" x="-112.499" y="-112.54" transform="matrix(0.9922 0 0 -0.9922 354.5465 666.2129)" overflow="visible"/>
</g>
<use xlink:href="#sword"  width="223.244" height="223.324" x="-111.622" y="-111.662" transform="matrix(1 0 0 -1 5.035400e-04 935.4305)" overflow="visible"/>
<g>
	
		<use xlink:href="#tile"  width="224.998" height="225.08" x="-112.499" y="-112.54" transform="matrix(-0.9922 0 0 0.9922 -720.7354 1613.9996)" overflow="visible"/>
	
		<use xlink:href="#tile"  width="224.998" height="225.08" x="-112.499" y="-112.54" transform="matrix(0.9922 0 0 -0.9922 -151.8763 1158.1136)" overflow="visible"/>
	
		<use xlink:href="#tile"  width="224.998" height="225.08" x="-112.499" y="-112.54" transform="matrix(-0.9922 0 0 0.9922 -326.8408 1134.7166)" overflow="visible"/>
	
		<use xlink:href="#tile"  width="224.998" height="225.08" x="-112.499" y="-112.54" transform="matrix(1 0 0 -1 -349.6179 1158.5868)" overflow="visible"/>
</g>
<use xlink:href="#belt"  width="598.108" height="248.081" x="-202.054" y="103.23" transform="matrix(0.3531 0 0 -0.3531 -239.514 1147.0845)" overflow="visible"/>
</svg>
